<svg width="299" height="324" viewBox="0 0 299 324" fill="none" xmlns="http://www.w3.org/2000/svg">
<path d="M0.157368 241C0.157368 241 -4.76745 240.992 40.5015 194.927C85.7704 148.862 176.28 196.318 223.29 127.527C270.3 58.7367 261.437 17.5834 298 1" stroke="#DCFDAD" stroke-opacity="0.8" stroke-width="0.5"/>
<path d="M0.157368 283C0.157368 283 -4.76745 282.992 40.5015 236.927C85.7704 190.862 176.28 238.318 223.29 169.527C270.3 100.737 261.437 59.5834 298 43" stroke="#DCFDAD" stroke-opacity="0.4" stroke-width="0.5"/>
<path d="M0.157368 303C0.157368 303 -4.76745 302.992 40.5015 256.927C85.7704 210.862 176.28 258.318 223.29 189.527C270.3 120.737 261.437 79.5834 298 63" stroke="#DCFDAD" stroke-opacity="0.2" stroke-width="0.5"/>
<path d="M0.157266 324C0.157266 324 -4.76755 323.992 40.5014 278.216C85.7703 232.439 176.28 279.598 223.29 211.238C270.3 142.878 261.437 102.48 298 86" stroke="#DCFDAD" stroke-opacity="0.1" stroke-width="0.5"/>
</svg>
